<svg width="178" height="178" viewBox="0 0 178 178" fill="none" xmlns="http://www.w3.org/2000/svg">
<g clip-path="url(#clip0_6773_228)">
<path d="M84.1883 5.51122C84.1431 2.63004 85.9345 0.646805 88.6119 0.608044C90.7201 0.575744 92.3563 1.80315 92.7379 3.70887L91.3798 3.72825C91.0112 2.52022 89.9506 1.79669 88.5925 1.82253C86.7041 1.85483 85.4818 3.29542 85.5206 5.47892C85.5594 7.66242 86.8205 9.06425 88.7089 9.03195C90.0799 9.01257 91.1534 8.25674 91.4833 7.10039L92.8284 7.08101C92.4598 8.94797 90.8107 10.2141 88.7024 10.2464C86.0379 10.2917 84.2401 8.40532 84.1883 5.51122Z" fill="#cccccc"/>
<path d="M102.503 11.4358C99.9027 10.9836 98.4347 8.70968 98.9262 5.90602C99.4112 3.12173 101.578 1.4615 104.178 1.91371C106.79 2.36591 108.271 4.64631 107.78 7.44351C107.288 10.2472 105.115 11.888 102.503 11.4358ZM103.964 3.12819C102.089 2.80519 100.608 4.0003 100.239 6.13858C99.8639 8.27685 100.853 9.91771 102.729 10.2407C104.604 10.5637 106.098 9.34922 106.473 7.22387C106.836 5.08559 105.833 3.4512 103.964 3.12819Z" fill="#cccccc"/>
<path d="M112.645 13.6517L115.865 4.87891L117.055 5.31173L119.06 13.7421L121.55 6.95904L122.74 7.39187L119.519 16.1646L118.329 15.7318L116.324 7.30142L113.834 14.0845L112.645 13.6517Z" fill="#cccccc"/>
<path d="M129.161 10.375L135.169 13.7536L134.6 14.7678L132.155 13.3918L128.139 20.5173L127.033 19.8971L131.049 12.7717L128.592 11.3892L129.161 10.375Z" fill="#cccccc"/>
<path d="M133.824 23.9807L142.238 18.6641L143.357 19.5232L140.363 29.0131L139.308 28.1991L140.065 25.8476L136.954 23.451L134.878 24.7882L133.824 23.9807ZM137.924 22.8114L140.434 24.743L141.682 20.7765C141.74 20.5956 141.824 20.3824 141.889 20.2532C141.792 20.3372 141.604 20.4729 141.436 20.5892L137.924 22.8114Z" fill="#cccccc"/>
<path d="M147.178 28.9092C149.286 26.9454 151.957 26.9454 153.781 28.9028C155.217 30.4403 155.404 32.4752 154.247 34.0385L153.322 33.0437C153.975 31.9584 153.794 30.6922 152.869 29.7038C151.582 28.3278 149.694 28.386 148.096 29.8783C146.499 31.3705 146.305 33.2439 147.592 34.6199C148.53 35.6212 149.81 35.9119 150.884 35.3822L151.802 36.3641C150.166 37.3396 148.122 36.9714 146.68 35.4274C144.869 33.483 145.057 30.886 147.178 28.9092Z" fill="#cccccc"/>
<path d="M160.094 36.6426L163.967 42.3403L163.004 42.9928L161.426 40.6737L154.655 45.2732L153.943 44.2267L160.714 39.6271L159.13 37.295L160.094 36.6426Z" fill="#cccccc"/>
<path d="M172.413 82.1537C175.297 82.0633 177.302 83.8204 177.386 86.4949C177.451 88.6008 176.248 90.2546 174.346 90.6616L174.301 89.305C175.504 88.9174 176.209 87.8515 176.17 86.4949C176.112 84.6085 174.65 83.4134 172.464 83.4845C170.279 83.5555 168.895 84.8346 168.953 86.721C168.998 88.0905 169.768 89.15 170.925 89.4665L170.964 90.8102C169.089 90.4678 167.795 88.8399 167.73 86.7339C167.659 84.0724 169.515 82.2442 172.413 82.1537Z" fill="#cccccc"/>
<path d="M166.93 100.571C167.311 97.9616 169.549 96.437 172.362 96.8504C175.163 97.2574 176.883 99.3763 176.501 101.986C176.12 104.609 173.876 106.146 171.062 105.733C168.243 105.326 166.542 103.194 166.93 100.571ZM175.285 101.812C175.564 99.9319 174.322 98.4848 172.175 98.1683C170.021 97.8517 168.411 98.8853 168.133 100.765C167.855 102.645 169.122 104.112 171.256 104.422C173.403 104.732 175.007 103.692 175.285 101.812Z" fill="#cccccc"/>
<path d="M164.982 110.766L173.842 113.737L173.441 114.939L165.067 117.174L171.915 119.474L171.514 120.675L162.654 117.704L163.055 116.502L171.43 114.267L164.582 111.967L164.982 110.766Z" fill="#cccccc"/>
<path d="M168.707 127.168L165.486 133.26L164.458 132.717L165.771 130.236L158.527 126.418L159.122 125.301L166.359 129.119L167.678 126.632L168.707 127.168Z" fill="#cccccc"/>
<path d="M155.23 132.186L160.772 140.441L159.944 141.578L150.373 138.839L151.156 137.767L153.529 138.458L155.844 135.286L154.454 133.245L155.23 132.186ZM156.504 136.249L154.635 138.807L158.638 139.944C158.826 139.996 159.039 140.073 159.168 140.138C159.078 140.041 158.942 139.86 158.819 139.692L156.504 136.249Z" fill="#cccccc"/>
<path d="M150.65 145.661C152.674 147.715 152.746 150.383 150.838 152.257C149.337 153.736 147.3 153.975 145.709 152.858L146.679 151.908C147.779 152.528 149.046 152.321 150.016 151.365C151.362 150.041 151.252 148.161 149.713 146.604C148.18 145.047 146.298 144.905 144.946 146.23C143.97 147.192 143.711 148.478 144.274 149.544L143.317 150.487C142.295 148.878 142.612 146.824 144.112 145.345C146.007 143.478 148.613 143.6 150.65 145.661Z" fill="#cccccc"/>
<path d="M143.247 158.769L137.653 162.787L136.973 161.844L139.25 160.209L134.471 153.568L135.499 152.832L140.278 159.473L142.568 157.832L143.247 158.769Z" fill="#cccccc"/>
<path d="M98.0472 172.303C98.2153 175.178 96.508 177.232 93.8306 177.387C91.7223 177.51 90.0409 176.354 89.5752 174.461L90.9333 174.384C91.3537 175.579 92.4402 176.25 93.7983 176.173C95.6867 176.063 96.8443 174.571 96.7149 172.394C96.5856 170.21 95.2663 168.867 93.3779 168.976C92.0069 169.054 90.9657 169.855 90.6811 171.024L89.3359 171.102C89.627 169.222 91.2243 167.885 93.3262 167.762C95.9971 167.6 97.879 169.409 98.0472 172.303Z" fill="#cccccc"/>
<path d="M79.461 167.309C82.0802 167.619 83.6711 169.815 83.3348 172.638C82.9985 175.448 80.9226 177.218 78.3034 176.908C75.6713 176.598 74.0674 174.402 74.4037 171.579C74.74 168.756 76.8289 166.999 79.461 167.309ZM78.4521 175.687C80.3405 175.914 81.7568 174.634 82.0155 172.477C82.2742 170.319 81.1942 168.736 79.3058 168.51C77.4174 168.284 75.9882 169.589 75.7295 171.727C75.4708 173.892 76.5637 175.468 78.4521 175.687Z" fill="#cccccc"/>
<path d="M69.2174 165.649L66.4818 174.577L65.2725 174.209L62.8085 165.908L60.6937 172.814L59.4844 172.445L62.22 163.518L63.4293 163.886L65.8933 172.187L68.0081 165.281L69.2174 165.649Z" fill="#cccccc"/>
<path d="M52.8935 169.81L46.7109 166.761L47.2283 165.721L49.744 166.961L53.3656 159.629L54.5038 160.191L50.8822 167.523L53.4109 168.77L52.8935 169.81Z" fill="#cccccc"/>
<path d="M47.501 156.483L39.3848 162.245L38.2207 161.444L40.7041 151.812L41.8035 152.568L41.1762 154.959L44.4162 157.187L46.421 155.74L47.501 156.483ZM43.472 157.866L40.8593 156.07L39.831 160.101C39.7793 160.288 39.7081 160.501 39.6499 160.637C39.7469 160.546 39.9216 160.398 40.0832 160.275L43.472 157.866Z" fill="#cccccc"/>
<path d="M33.9132 152.282C31.9149 154.356 29.2439 154.498 27.3167 152.644C25.7969 151.184 25.5059 149.162 26.5795 147.541L27.556 148.484C26.9675 149.602 27.2068 150.855 28.1833 151.798C29.5414 153.109 31.4233 152.941 32.9431 151.372C34.4564 149.802 34.5534 147.916 33.1889 146.604C32.1994 145.654 30.906 145.435 29.8583 146.016L28.8882 145.086C30.4662 144.027 32.5292 144.285 34.049 145.745C35.9762 147.593 35.9245 150.196 33.9132 152.282Z" fill="#cccccc"/>
<path d="M20.5899 145.242L16.4121 139.764L17.3369 139.06L19.0378 141.289L25.5502 136.334L26.3198 137.342L19.8074 142.297L21.5147 144.538L20.5899 145.242Z" fill="#cccccc"/>
<path d="M5.82611 100.481C2.9547 100.726 0.852878 99.0725 0.626528 96.411C0.445448 94.3115 1.56426 92.5996 3.43973 92.0892L3.55614 93.4394C2.37266 93.8916 1.72594 94.9962 1.84235 96.3464C2.00403 98.2263 3.52381 99.3439 5.70323 99.1565C7.88266 98.9692 9.19549 97.6126 9.03381 95.7327C8.9174 94.3696 8.08961 93.3489 6.91259 93.097L6.79618 91.7598C8.68458 91.9988 10.0621 93.5557 10.2432 95.6552C10.4695 98.3103 8.71692 100.235 5.82611 100.481Z" fill="#cccccc"/>
<path d="M10.3215 81.7907C10.0823 84.4134 7.9287 86.0607 5.09609 85.7959C2.27642 85.5375 0.44622 83.5155 0.691972 80.8927C0.937723 78.257 3.08481 76.5968 5.91742 76.8616C8.75003 77.12 10.5608 79.1549 10.3215 81.7907ZM1.91426 81.0025C1.73965 82.8953 3.05248 84.2713 5.21897 84.4716C7.38546 84.6718 8.93757 83.5542 9.11219 81.6615C9.2868 79.7687 7.9481 78.3733 5.79454 78.1795C3.63452 77.9857 2.08887 79.1097 1.91426 81.0025Z" fill="#cccccc"/>
<path d="M11.704 71.4999L2.69531 69.0128L3.0316 67.7918L11.2707 65.1109L4.30563 63.1858L4.64192 61.9648L13.6506 64.452L13.3144 65.6729L5.07522 68.3538L12.0403 70.2789L11.704 71.4999Z" fill="#cccccc"/>
<path d="M7.09375 55.3242L9.97809 49.0645L11.0387 49.549L9.86815 52.0942L17.2989 55.518L16.7686 56.6679L9.33138 53.2506L8.15436 55.8087L7.09375 55.3242Z" fill="#cccccc"/>
<path d="M20.2868 49.5753L14.3047 41.6295L15.0743 40.4473L24.7815 42.6631L24.0571 43.7807L21.6449 43.2186L19.5043 46.5133L21.0046 48.4706L20.2868 49.5753ZM18.7929 45.5895L20.5196 42.9344L16.4647 42.0106C16.2772 41.9654 16.0573 41.9008 15.9279 41.8426C16.0249 41.9331 16.1737 42.1075 16.2966 42.269L18.7929 45.5895Z" fill="#cccccc"/>
<path d="M24.1285 35.8929C22.0008 33.9549 21.7874 31.2934 23.5852 29.3166C25.008 27.7597 27.0193 27.4109 28.6684 28.4445L27.7565 29.4458C26.6248 28.8838 25.3702 29.1616 24.4583 30.1629C23.1843 31.5583 23.3977 33.4317 25.0145 34.8981C26.6312 36.3645 28.5132 36.4098 29.7872 35.0144C30.712 34.0002 30.8996 32.7081 30.2852 31.6745L31.1906 30.6797C32.2965 32.2301 32.0895 34.2973 30.6667 35.8477C28.8753 37.8245 26.2691 37.8439 24.1285 35.8929Z" fill="#cccccc"/>
<path d="M30.8086 22.3979L36.1763 18.0762L36.9071 18.9806L34.7212 20.7377L39.8561 27.1073L38.8666 27.9019L33.7317 21.5323L31.5329 23.2959L30.8086 22.3979Z" fill="#cccccc"/>
<path d="M58.5269 12.5276C59.7413 12.5276 60.7258 11.5442 60.7258 10.3312C60.7258 9.11814 59.7413 8.13477 58.5269 8.13477C57.3126 8.13477 56.3281 9.11814 56.3281 10.3312C56.3281 11.5442 57.3126 12.5276 58.5269 12.5276Z" fill="#cccccc"/>
<path d="M168.468 64.2073C169.683 64.2073 170.667 63.2239 170.667 62.0109C170.667 60.7978 169.683 59.8145 168.468 59.8145C167.254 59.8145 166.27 60.7978 166.27 62.0109C166.27 63.2239 167.254 64.2073 168.468 64.2073Z" fill="#cccccc"/>
<path d="M117.882 169.856C119.097 169.856 120.081 168.872 120.081 167.659C120.081 166.446 119.097 165.463 117.882 165.463C116.668 165.463 115.684 166.446 115.684 167.659C115.684 168.872 116.668 169.856 117.882 169.856Z" fill="#cccccc"/>
<path d="M10.5797 123.465C11.7941 123.465 12.7785 122.482 12.7785 121.269C12.7785 120.056 11.7941 119.072 10.5797 119.072C9.36531 119.072 8.38086 120.056 8.38086 121.269C8.38086 122.482 9.36531 123.465 10.5797 123.465Z" fill="#cccccc"/>
</g>
<defs>
<clipPath id="clip0_6773_228">
<rect width="176.786" height="176.786" fill="white" transform="translate(0.607422 0.607422)"/>
</clipPath>
</defs>
</svg>
